<svg width="32" height="32" viewBox="0 0 32 32" fill="none" xmlns="http://www.w3.org/2000/svg">
<path d="M27.9698 3.78614C26.4143 3.56392 22.3129 3.78609 18.5417 5.67166C15.1018 7.39156 13.5515 9.4969 12.8848 10.3858C11.996 10.1636 10.8336 10.4686 9.11361 11.3286C7.22799 12.2714 6.28518 13.2142 5.78906 13.6835L9.78906 16.3502C9.56684 17.2391 9.11361 18.871 10.9992 20.7567" stroke="white" stroke-width="2" stroke-linecap="round" stroke-linejoin="round"/>
<path d="M27.9726 3.78604C28.1949 5.3416 27.9727 9.44292 26.0871 13.2142C24.3672 16.6541 22.2619 18.2043 21.373 18.871C21.5952 19.7599 21.2902 20.9223 20.4302 22.6423C19.4874 24.5279 18.5446 25.4707 18.0753 25.9668L15.4086 21.9668C14.5197 22.189 12.8878 22.6423 11.0021 20.7566" stroke="white" stroke-width="2" stroke-linecap="round" stroke-linejoin="round"/>
<circle cx="21.5625" cy="10.5741" r="1.33333" transform="rotate(45 21.5625 10.5741)" fill="white"/>
<path d="M3.64673 28.4868L2.65285 28.3764C2.62144 28.6591 2.7119 28.9418 2.9016 29.1537C3.09131 29.3657 3.36229 29.4868 3.64673 29.4868V28.4868ZM3.64673 28.4868L4.64062 28.5972C4.71419 27.9351 4.89352 26.859 5.18637 25.8248C5.49462 24.7361 5.87279 23.9037 6.23946 23.5371L5.53235 22.83L4.82524 22.1228C4.06054 22.8875 3.57447 24.1765 3.26203 25.2799C2.9342 26.4376 2.73641 27.6243 2.65285 28.3764L3.64673 28.4868ZM5.53235 22.83L6.23946 23.5371C6.77652 23 7.20342 22.9146 7.50421 22.942C7.84659 22.9731 8.23013 23.1707 8.59648 23.5371L9.30359 22.83L10.0107 22.1228C9.43423 21.5464 8.63926 21.0369 7.68528 20.9502C6.68971 20.8597 5.7024 21.2457 4.82524 22.1228L5.53235 22.83ZM9.30359 22.83L8.59648 23.5371C8.96283 23.9034 9.16045 24.2869 9.19158 24.6293C9.21892 24.9301 9.13354 25.357 8.59648 25.8941L9.30359 26.6012L10.0107 27.3083C10.8878 26.4311 11.2739 25.4438 11.1834 24.4483C11.0966 23.4943 10.5872 22.6993 10.0107 22.1228L9.30359 22.83ZM9.30359 26.6012L8.59648 25.8941C8.60744 25.8831 8.5802 25.9104 8.48832 25.9758C8.40547 26.0348 8.2912 26.1098 8.14728 26.1954C7.85958 26.3664 7.47112 26.5692 7.00826 26.763C6.0762 27.1531 4.8903 27.4868 3.64673 27.4868V28.4868V29.4868C5.23159 29.4868 6.68556 29.0662 7.78054 28.6079C8.3312 28.3774 8.80305 28.1323 9.16943 27.9145C9.51083 27.7115 9.82429 27.4947 10.0107 27.3083L9.30359 26.6012Z" fill="white"/>
</svg>
