<svg width="24" height="24" viewBox="0 0 24 24" fill="none" xmlns="http://www.w3.org/2000/svg">
<g id="VIP program-dark">
<path id="Rectangle 40525" d="M10.5 14H13.5V21H10.5V14Z" fill="#FFFFFF"/>
<path id="Union" fill-rule="evenodd" clip-rule="evenodd" d="M13.5437 6.25067H15.5018L16.5515 4.99972C16.8178 4.68241 16.7764 4.20935 16.4591 3.9431C16.1418 3.67685 15.6687 3.71823 15.4025 4.03554L13.5437 6.25067ZM17.46 6.25067H20.002C20.9685 6.25067 21.752 7.03418 21.752 8.00067V10.0007C21.752 10.9672 20.9685 11.7507 20.002 11.7507H19.7515V19.5008C19.7515 20.7434 18.7441 21.7508 17.5015 21.7508H6.50146C5.25882 21.7508 4.25146 20.7434 4.25146 19.5008V11.7507H4.00195C3.03546 11.7507 2.25195 10.9672 2.25195 10.0007V8.00067C2.25195 7.03418 3.03545 6.25067 4.00195 6.25067H6.73658L6.49595 5.9639C5.69719 5.01198 5.82136 3.59278 6.77328 2.79403C7.7252 1.99528 9.1444 2.11944 9.94315 3.07136L12.0983 5.63973L14.2534 3.07136C15.0521 2.11944 16.4713 1.99528 17.4233 2.79403C18.3752 3.59278 18.4993 5.01198 17.7006 5.9639L17.46 6.25067ZM8.69469 6.25067L7.64502 4.99972C7.37876 4.68241 7.42015 4.20935 7.73746 3.9431C8.05476 3.67685 8.52783 3.71823 8.79408 4.03554L10.6528 6.25067H8.69469ZM5.75146 11.7508V19.5008C5.75146 19.915 6.08725 20.2508 6.50146 20.2508H17.5015C17.9157 20.2508 18.2515 19.915 18.2515 19.5008V11.7508H5.75146ZM3.75195 8.00067C3.75195 7.8626 3.86388 7.75067 4.00195 7.75067H20.002C20.14 7.75067 20.252 7.8626 20.252 8.00067V10.0007C20.252 10.1387 20.14 10.2507 20.002 10.2507H4.00195C3.86388 10.2507 3.75195 10.1387 3.75195 10.0007V8.00067Z" fill="white"/>
</g>
</svg>
