<svg width="24" height="24" viewBox="0 0 24 24" fill="none" xmlns="http://www.w3.org/2000/svg">
<g id="VIP program-dark">
<path id="2" d="M11 12C11 11.4477 11.4477 11 12 11C12.5523 11 13 11.4477 13 12C13 12.5523 12.5523 13 12 13C11.4477 13 11 12.5523 11 12ZM12 9C10.3431 9 9 10.3431 9 12C9 13.6569 10.3431 15 12 15C13.6569 15 15 13.6569 15 12C15 10.3431 13.6569 9 12 9ZM3 11.25C3.41421 11.25 3.75 11.5858 3.75 12C3.75 16.5563 7.44365 20.25 12 20.25C14.1921 20.25 16.1843 19.3956 17.6625 18H16.5C16.0858 18 15.75 17.6642 15.75 17.25C15.75 16.8358 16.0858 16.5 16.5 16.5L19.5 16.5C19.9142 16.5 20.25 16.8358 20.25 17.25V20.25C20.25 20.6642 19.9142 21 19.5 21C19.0858 21 18.75 20.6642 18.75 20.25V19.0356C16.9988 20.716 14.62 21.75 12 21.75C6.61522 21.75 2.25 17.3848 2.25 12C2.25 11.5858 2.58579 11.25 3 11.25Z" fill="white"/>
<path id="1" d="M6.33757 6C7.81573 4.60435 9.80773 3.75 12 3.75C16.5564 3.75 20.25 7.44365 20.25 12C20.25 12.4142 20.5858 12.75 21 12.75C21.4142 12.75 21.75 12.4142 21.75 12C21.75 6.61522 17.3848 2.25 12 2.25C9.38021 2.25 7.00117 3.28402 5.25 4.96439V3.75C5.25 3.33579 4.91421 3 4.5 3C4.08579 3 3.75 3.33579 3.75 3.75V6.75C3.75 7.16421 4.08579 7.5 4.5 7.5H7.5C7.91421 7.5 8.25 7.16421 8.25 6.75C8.25 6.33579 7.91421 6 7.5 6H6.33757Z" fill="#FFFFFF"/>
</g>
</svg>
