<svg width="24" height="24" viewBox="0 0 24 24" fill="none" xmlns="http://www.w3.org/2000/svg">
<g id="VIP program-dark">
<path id="Union" d="M5.83691 6.51524C7.18808 4.99624 9.09826 3.97182 11.2823 3.78114C15.8214 3.38483 19.8223 6.74321 20.2186 11.2823C20.2546 11.6949 20.6183 12.0002 21.031 11.9642C21.4436 11.9282 21.7489 11.5645 21.7129 11.1518C21.2446 5.78746 16.5162 1.81846 11.1518 2.28682C8.54196 2.51469 6.26188 3.7517 4.66351 5.578L4.5579 4.36835C4.52187 3.95571 4.15815 3.6504 3.74551 3.68643C3.33286 3.72246 3.02756 4.08618 3.06358 4.49882L3.32452 7.48745C3.36055 7.9001 3.72427 8.2054 4.13691 8.16937L7.12554 7.90844C7.53819 7.87241 7.84349 7.50869 7.80747 7.09605C7.77144 6.6834 7.40772 6.37809 6.99507 6.41412L5.83691 6.51524Z" fill="#FFFFFF"/>
<path id="Union_2" d="M10.5 8.625C10.5 9.24632 9.99635 9.75 9.37503 9.75C8.75371 9.75 8.25003 9.24632 8.25003 8.625C8.25003 8.00368 8.75371 7.5 9.37503 7.5C9.99635 7.5 10.5 8.00368 10.5 8.625ZM10.5 14.625C10.5 12.761 12.0111 11.25 13.875 11.25C15.739 11.25 17.25 12.761 17.25 14.625V15C17.25 15.4142 16.9142 15.75 16.5 15.75H11.25C10.8358 15.75 10.5 15.4142 10.5 15V14.625ZM15.7125 14.25C15.5388 13.3942 14.7821 12.75 13.875 12.75C12.9679 12.75 12.2113 13.3942 12.0375 14.25H15.7125ZM13.875 10.5C14.4964 10.5 15 9.99632 15 9.375C15 8.75368 14.4964 8.25 13.875 8.25C13.2537 8.25 12.75 8.75368 12.75 9.375C12.75 9.99632 13.2537 10.5 13.875 10.5ZM9.75003 10.5C7.67896 10.5 6.00003 12.1789 6.00003 14.25C6.00003 14.6642 6.33582 15 6.75003 15H9.00003C9.41424 15 9.75003 14.6642 9.75003 14.25C9.75003 13.8358 9.41424 13.5 9.00003 13.5H7.62806C7.93694 12.6261 8.77037 12 9.75003 12C10.1642 12 10.5 11.6642 10.5 11.25C10.5 10.8358 10.1642 10.5 9.75003 10.5ZM2.96875 12.0356C3.38139 11.9996 3.74511 12.3049 3.78114 12.7175C4.17744 17.2566 8.17837 20.615 12.7174 20.2187C14.9012 20.028 16.8116 19.0036 18.1627 17.4847L17.0045 17.5858C16.5919 17.6219 16.2282 17.3166 16.1921 16.9039C16.1561 16.4913 16.4614 16.1275 16.8741 16.0915L19.8627 15.8306C20.2753 15.7945 20.6391 16.0999 20.6751 16.5125L20.936 19.5011C20.972 19.9138 20.6667 20.2775 20.2541 20.3135C19.8414 20.3496 19.4777 20.0442 19.4417 19.6316L19.3361 18.4219C17.7377 20.2482 15.4579 21.4851 12.8479 21.713C7.48355 22.1814 2.75519 18.2124 2.28682 12.848C2.2508 12.4353 2.5561 12.0716 2.96875 12.0356Z" fill="white"/>
</g>
</svg>
