<svg width="24" height="24" viewBox="0 0 24 24" fill="none" xmlns="http://www.w3.org/2000/svg">
<g id="VIP program-dark">
<path id="Rectangle 34624595 (Stroke)" d="M6.25 8.5C6.25 7.25736 7.25736 6.25 8.5 6.25H19.5C20.7426 6.25 21.75 7.25736 21.75 8.5V19.5C21.75 20.7426 20.7426 21.75 19.5 21.75H8.5C7.25736 21.75 6.25 20.7426 6.25 19.5V8.5ZM8.5 7.75C8.08579 7.75 7.75 8.08579 7.75 8.5V19.5C7.75 19.9142 8.08579 20.25 8.5 20.25H19.5C19.9142 20.25 20.25 19.9142 20.25 19.5V8.5C20.25 8.08579 19.9142 7.75 19.5 7.75H8.5Z" fill="white"/>
<path id="Rectangle 34624596 (Stroke)" d="M2.25 4.5C2.25 3.25736 3.25736 2.25 4.5 2.25H15.5C16.7426 2.25 17.75 3.25736 17.75 4.5V15.5C17.75 16.7426 16.7426 17.75 15.5 17.75H4.5C3.25736 17.75 2.25 16.7426 2.25 15.5V4.5ZM4.5 3.75C4.08579 3.75 3.75 4.08579 3.75 4.5V15.5C3.75 15.9142 4.08579 16.25 4.5 16.25H15.5C15.9142 16.25 16.25 15.9142 16.25 15.5V4.5C16.25 4.08579 15.9142 3.75 15.5 3.75H4.5Z" fill="#FFFFFF"/>
</g>
</svg>
