<svg width="24" height="24" viewBox="0 0 24 24" fill="none" xmlns="http://www.w3.org/2000/svg">
<g id="VIP program-dark">
<path id="2" d="M3.63203 5.49633C2.41654 5.75469 1.64064 6.94947 1.89899 8.16496L3.24992 14.5206V18.5C3.24992 19.7427 4.25728 20.75 5.49992 20.75H18.4999C19.7426 20.75 20.7499 19.7427 20.7499 18.5V9.50002C20.7499 8.25738 19.7426 7.25002 18.4999 7.25002H17.5508L17.0603 4.94233C16.8019 3.72684 15.6071 2.95094 14.3916 3.2093L3.63203 5.49633ZM16.0173 7.25002H5.49992C4.62756 7.25002 3.87116 7.74648 3.49783 8.47227L3.36622 7.85309C3.2801 7.44793 3.53873 7.04967 3.94389 6.96355L14.7035 4.67652C15.1087 4.5904 15.5069 4.84903 15.5931 5.2542L16.0173 7.25002ZM4.74992 9.50002C4.74992 9.0858 5.08571 8.75002 5.49992 8.75002H18.4999C18.9141 8.75002 19.2499 9.0858 19.2499 9.50002V18.5C19.2499 18.9142 18.9141 19.25 18.4999 19.25H5.49992C5.08571 19.25 4.74992 18.9142 4.74992 18.5V9.50002Z" fill="white"/>
<path id="1" d="M15.4685 10.9144C15.792 11.1731 15.8444 11.6451 15.5857 11.9685L14.5605 13.25L23 13.25C23.4142 13.25 23.75 13.5858 23.75 14C23.75 14.4142 23.4142 14.75 23 14.75L14.5605 14.75L15.5857 16.0315C15.8444 16.355 15.792 16.8269 15.4685 17.0857C15.1451 17.3444 14.6731 17.292 14.4144 16.9685L12.0396 14L14.4144 11.0315C14.6731 10.7081 15.1451 10.6556 15.4685 10.9144Z" fill="#FFFFFF"/>
</g>
</svg>
