<svg width="24" height="24" viewBox="0 0 24 24" fill="none" xmlns="http://www.w3.org/2000/svg">
<g id="VIP program-dark">
<path id="Union" d="M19.25 3.5C19.25 3.08579 18.9142 2.75 18.5 2.75C18.0858 2.75 17.75 3.08579 17.75 3.5V5.25H16C15.5858 5.25 15.25 5.58579 15.25 6C15.25 6.41421 15.5858 6.75 16 6.75H17.75V8.5C17.75 8.91421 18.0858 9.25 18.5 9.25C18.9142 9.25 19.25 8.91421 19.25 8.5V6.75H21C21.4142 6.75 21.75 6.41421 21.75 6C21.75 5.58579 21.4142 5.25 21 5.25H19.25V3.5Z" fill="#FFFFFF"/>
<path id="Union_2" d="M12 3.75C7.44365 3.75 3.75 7.44365 3.75 12C3.75 16.5563 7.44365 20.25 12 20.25C16.5563 20.25 20.25 16.5563 20.25 12C20.25 11.5731 20.2176 11.1542 20.1554 10.7456C20.0929 10.3362 20.3743 9.95361 20.7838 9.89119C21.1933 9.82877 21.5758 10.1101 21.6382 10.5196C21.7119 11.0028 21.75 11.4972 21.75 12C21.75 17.3848 17.3848 21.75 12 21.75C6.61522 21.75 2.25 17.3848 2.25 12C2.25 6.61522 6.61522 2.25 12 2.25C12.6049 2.25 13.1975 2.30517 13.773 2.41095C14.1804 2.48583 14.4499 2.87679 14.3751 3.28418C14.3002 3.69156 13.9092 3.96111 13.5018 3.88623C13.0154 3.79682 12.5135 3.75 12 3.75ZM12.6887 7C12.6887 6.58579 12.3529 6.25 11.9387 6.25C11.5245 6.25 11.1887 6.58579 11.1887 7V7.71948H10.8367C10.1507 7.71948 9.49274 7.99201 9.00764 8.47712C8.52253 8.96223 8.25 9.62017 8.25 10.3062C8.25 10.9923 8.52253 11.6502 9.00764 12.1353C9.49274 12.6204 10.1507 12.893 10.8367 12.893H13.0408C13.329 12.893 13.6055 13.0074 13.8093 13.2112C14.0131 13.4151 14.1276 13.6915 14.1276 13.9797C14.1276 14.2679 14.0131 14.5443 13.8093 14.7481C13.6055 14.9519 13.329 15.0664 13.0408 15.0664H11.9432L11.9387 15.0664L11.9342 15.0664H9.73469C9.32048 15.0664 8.98469 15.4022 8.98469 15.8164C8.98469 16.2306 9.32048 16.5664 9.73469 16.5664H11.1887V17.2858C11.1887 17.7 11.5245 18.0358 11.9387 18.0358C12.3529 18.0358 12.6887 17.7 12.6887 17.2858V16.5664H13.0408C13.7269 16.5664 14.3848 16.2939 14.8699 15.8088C15.355 15.3237 15.6276 14.6657 15.6276 13.9797C15.6276 13.2936 15.355 12.6357 14.8699 12.1506C14.3848 11.6655 13.7269 11.393 13.0408 11.393H10.8367C10.5485 11.393 10.2721 11.2785 10.0683 11.0747C9.86449 10.8709 9.75 10.5944 9.75 10.3062C9.75 10.018 9.86449 9.74158 10.0683 9.53778C10.2721 9.33398 10.5485 9.21948 10.8367 9.21948H14.1429C14.5571 9.21948 14.8929 8.8837 14.8929 8.46948C14.8929 8.05527 14.5571 7.71948 14.1429 7.71948H12.6887V7Z" fill="white"/>
</g>
</svg>
