<svg width="24" height="24" viewBox="0 0 24 24" fill="none" xmlns="http://www.w3.org/2000/svg">
<g id="VIP program-dark">
<path id="Union" d="M16.5002 12.3548C16.7435 12.5888 16.5778 13 16.2402 13L9.75018 13C9.33596 13 9.00017 12.6642 9.00017 12.25C9.00017 11.8358 9.33596 11.5 9.75018 11.5L14.0523 11.5V10.4699C14.0523 10.2936 14.2639 10.2036 14.391 10.3258L16.5002 12.3548ZM7.50006 14.6453C7.25675 14.4112 7.42243 14 7.76003 14H14.2502C14.6644 14 15.0002 14.3358 15.0002 14.75C15.0002 15.1642 14.6644 15.5 14.2502 15.5H9.94792L9.94792 16.5301C9.94792 16.7064 9.73633 16.7965 9.60926 16.6743L7.50006 14.6453Z" fill="#FFFFFF"/>
<g id="Union_2">
<path d="M6.75 3C6.75 2.58579 7.08579 2.25 7.5 2.25C7.91421 2.25 8.25 2.58579 8.25 3H15.75C15.75 2.58579 16.0858 2.25 16.5 2.25C16.9142 2.25 17.25 2.58579 17.25 3H18C19.6569 3 21 4.34315 21 6V18C21 19.6569 19.6569 21 18 21H6C4.34315 21 3 19.6569 3 18V6C3 4.34315 4.34315 3 6 3H6.75ZM15.75 4.5H8.25C8.25 4.91421 7.91421 5.25 7.5 5.25C7.08579 5.25 6.75 4.91421 6.75 4.5H6C5.17157 4.5 4.5 5.17157 4.5 6V6.75H19.5V6C19.5 5.17157 18.8284 4.5 18 4.5H17.25C17.25 4.91421 16.9142 5.25 16.5 5.25C16.0858 5.25 15.75 4.91421 15.75 4.5ZM4.5 8.25V18C4.5 18.8284 5.17157 19.5 6 19.5H18C18.8284 19.5 19.5 18.8284 19.5 18V8.25H4.5Z" fill="white"/>
</g>
</g>
</svg>
