<svg width="24" height="24" viewBox="0 0 24 24" fill="none" xmlns="http://www.w3.org/2000/svg">
<g id="VIP program-dark">
<path id="Union" d="M12.75 3.29101C13.2764 3.01902 13.6363 2.46969 13.6363 1.83631C13.6363 0.932576 12.9036 0.199951 11.9999 0.199951C11.0962 0.199951 10.3635 0.932576 10.3635 1.83631C10.3635 2.46978 10.7235 3.01917 11.25 3.29112L11.25 7.36364H12.75L12.75 3.29101Z" fill="#FFFFFF"/>
<path id="Rectangle 329 (Stroke)" d="M2.25 8.86353C2.25 7.62088 3.25736 6.61353 4.5 6.61353H19.5C20.7426 6.61353 21.75 7.62089 21.75 8.86353V18.9544C21.75 20.1971 20.7426 21.2044 19.5 21.2044H4.5C3.25736 21.2044 2.25 20.1971 2.25 18.9544V8.86353ZM4.5 8.11353C4.08579 8.11353 3.75 8.44931 3.75 8.86353V18.9544C3.75 19.3686 4.08579 19.7044 4.5 19.7044H19.5C19.9142 19.7044 20.25 19.3686 20.25 18.9544V8.86353C20.25 8.44931 19.9142 8.11353 19.5 8.11353H4.5Z" fill="white"/>
<path id="Union_2" d="M10.3637 12.2728C10.3637 12.7246 9.99735 13.091 9.54548 13.091C9.09361 13.091 8.72729 12.7246 8.72729 12.2728C8.72729 11.8209 9.09361 11.4546 9.54548 11.4546C9.99735 11.4546 10.3637 11.8209 10.3637 12.2728ZM15.2728 12.2728C15.2728 12.7246 14.9065 13.091 14.4547 13.091C14.0028 13.091 13.6365 12.7246 13.6365 12.2728C13.6365 11.8209 14.0028 11.4546 14.4547 11.4546C14.9065 11.4546 15.2728 11.8209 15.2728 12.2728ZM9.54541 15.6135C9.1312 15.6135 8.79541 15.9493 8.79541 16.3635C8.79541 16.7777 9.1312 17.1135 9.54541 17.1135H14.4545C14.8687 17.1135 15.2045 16.7777 15.2045 16.3635C15.2045 15.9493 14.8687 15.6135 14.4545 15.6135H9.54541Z" fill="white"/>
</g>
</svg>
