<svg width="24" height="24" viewBox="0 0 24 24" fill="none" xmlns="http://www.w3.org/2000/svg">
<g id="VIP program-dark">
<path id="Rectangle 34624608 (Stroke)" fill-rule="evenodd" clip-rule="evenodd" d="M22.75 19C22.75 19.9665 21.9665 20.75 21 20.75L3 20.75C2.0335 20.75 1.25 19.9665 1.25 19L1.25 5C1.25 4.0335 2.0335 3.25 3 3.25L21 3.25C21.9665 3.25 22.75 4.0335 22.75 5L22.75 19ZM21 19.25C21.1381 19.25 21.25 19.1381 21.25 19L21.25 5C21.25 4.86193 21.1381 4.75 21 4.75L3 4.75C2.86193 4.75 2.75 4.86193 2.75 5L2.75 19C2.75 19.1381 2.86193 19.25 3 19.25L21 19.25Z" fill="white"/>
<path id="Union" fill-rule="evenodd" clip-rule="evenodd" d="M15.75 6H15V7.5H14.25V13.5H15V15H15.75V13.5H16.5V7.5H15.75V6ZM9.75 10.5H9V9H8.25V10.5H7.5V16.5H8.25V18H9V16.5H9.75V10.5Z" fill="#FFFFFF"/>
</g>
</svg>
