<svg width="24" height="24" viewBox="0 0 24 24" fill="none" xmlns="http://www.w3.org/2000/svg">
<path fill-rule="evenodd" clip-rule="evenodd" d="M20.5035 2.09226C20.1862 1.90548 19.7775 2.01128 19.5907 2.32858C16.9341 6.84156 11.555 14.0001 3.16526 14.0001C2.79707 14.0001 2.49859 14.2986 2.49859 14.6668C2.49859 15.035 2.79707 15.3334 3.16526 15.3334C12.3538 15.3334 18.0767 7.52891 20.7398 3.00497C20.9266 2.68767 20.8208 2.27904 20.5035 2.09226Z" fill="white"/>
<path fill-rule="evenodd" clip-rule="evenodd" d="M20.7494 17.3455C20.572 17.0229 20.1666 16.9052 19.844 17.0826C13.4741 20.5856 7.26582 20.2381 3.2767 19.5617C2.91369 19.5001 2.56951 19.7445 2.50796 20.1075C2.4464 20.4705 2.69078 20.8147 3.05379 20.8763C7.18753 21.5772 13.7437 21.959 20.4865 18.251C20.8091 18.0735 20.9268 17.6682 20.7494 17.3455Z" fill="white"/>
<path fill-rule="evenodd" clip-rule="evenodd" d="M18.9993 9C19.3675 9 19.666 9.29848 19.666 9.66667L19.666 14.3333C19.666 14.7015 19.3675 15 18.9993 15C18.6312 15 18.3327 14.7015 18.3327 14.3333L18.3327 9.66667C18.3327 9.29848 18.6312 9 18.9993 9Z" fill="#FFFFFF"/>
<path fill-rule="evenodd" clip-rule="evenodd" d="M21.3548 10.8044C21.0944 11.0648 20.6723 11.0648 20.412 10.8044L18.9977 9.3902L17.5835 10.8044C17.3232 11.0648 16.9011 11.0648 16.6407 10.8044C16.3804 10.5441 16.3804 10.122 16.6407 9.8616L18.5263 7.97599C18.7867 7.71564 19.2088 7.71564 19.4691 7.97599L21.3548 9.8616C21.6151 10.122 21.6151 10.5441 21.3548 10.8044Z" fill="#FFFFFF"/>
<path fill-rule="evenodd" clip-rule="evenodd" d="M16.6413 13.1956C16.9017 12.9352 17.3238 12.9352 17.5841 13.1956L18.9983 14.6098L20.4126 13.1956C20.6729 12.9352 21.095 12.9352 21.3554 13.1956C21.6157 13.4559 21.6157 13.878 21.3554 14.1384L19.4698 16.024C19.2094 16.2844 18.7873 16.2844 18.5269 16.024L16.6413 14.1384C16.381 13.878 16.381 13.4559 16.6413 13.1956Z" fill="#FFFFFF"/>
</svg>
