<svg width="48" height="48" viewBox="0 0 48 48" fill="none" xmlns="http://www.w3.org/2000/svg">
<path d="M24 48C37.2548 48 48 37.2548 48 24C48 10.7452 37.2548 0 24 0C10.7452 0 0 10.7452 0 24C0 37.2548 10.7452 48 24 48Z" fill="#595D61"/>
<path d="M45.6 24C45.6 35.9294 35.9293 45.6 24 45.6C12.0706 45.6 2.39996 35.9294 2.39996 24C2.39996 12.0707 12.0706 2.40002 24 2.40002C35.9293 2.40002 45.6 12.0707 45.6 24Z" fill="#595D61"/>
<path fill-rule="evenodd" clip-rule="evenodd" d="M4.15466 37.501C5.3845 27.6348 13.8007 20.0001 24 20.0001C34.1994 20.0001 42.6155 27.6348 43.8454 37.5009C39.5254 43.8388 32.2487 48.0001 24 48.0001C15.7514 48.0001 8.47467 43.8388 4.15466 37.501Z" fill="#71757A"/>
<circle cx="24" cy="16" r="9" fill="#ADB1B8"/>
</svg>
