<svg width="10" height="2" viewBox="0 0 10 2" fill="none" xmlns="http://www.w3.org/2000/svg">
<path fill-rule="evenodd" clip-rule="evenodd" d="M1.5 0C0.947715 0 0.5 0.447715 0.5 1C0.5 1.55228 0.947715 2 1.5 2C2.05228 2 2.5 1.55228 2.5 1C2.5 0.447715 2.05228 0 1.5 0ZM4 1C4 0.447715 4.44772 0 5 0C5.55228 0 6 0.447715 6 1C6 1.55228 5.55228 2 5 2C4.44772 2 4 1.55228 4 1ZM7.5 1C7.5 0.447715 7.94772 0 8.5 0C9.05228 0 9.5 0.447715 9.5 1C9.5 1.55228 9.05228 2 8.5 2C7.94772 2 7.5 1.55228 7.5 1Z" fill="white"/>
</svg>
