<svg width="22" height="18" viewBox="0 0 22 18" fill="none" xmlns="http://www.w3.org/2000/svg">
<g id="Group 482230">
<path id="Rectangle 4017" d="M18.25 16.75V15.25C18.25 10.6937 14.5563 7 10 7V7C5.44365 7 1.75 10.6937 1.75 15.25V16.75" stroke="white" stroke-width="1.75" stroke-linecap="round"/>
<circle id="Ellipse 286" cx="10" cy="4" r="3" stroke="white" stroke-width="1.75" stroke-linecap="round"/>
<path id="Union" fill-rule="evenodd" clip-rule="evenodd" d="M10.7778 8.40195C11.2463 8.52058 11.5317 8.99697 11.4154 9.46601L11.2654 10.0706L11.9843 10.2527C12.3357 10.3417 12.5498 10.699 12.4625 11.0507C12.3752 11.4025 12.0197 11.6156 11.6683 11.5266L9.4125 10.9553C9.25072 10.9144 9.07829 10.9397 8.93299 11.0276C8.78745 11.1157 8.68119 11.2596 8.63932 11.4284C8.59746 11.5971 8.62401 11.7746 8.71121 11.9217C8.79827 12.0685 8.93851 12.173 9.1003 12.2139L10.6042 12.5948C11.1072 12.7221 11.5383 13.0459 11.8035 13.4931C12.0685 13.94 12.1462 14.4735 12.0215 14.9764C11.8968 15.4793 11.5792 15.9127 11.1368 16.1805C10.7525 16.4132 10.3012 16.5042 9.85974 16.4407L9.71902 17.008C9.60267 17.477 9.12859 17.7611 8.66013 17.6424C8.19167 17.5238 7.90622 17.0474 8.02257 16.5784L8.16071 16.0215L7.40414 15.8299C7.0528 15.7409 6.83871 15.3836 6.92598 15.0318C7.01324 14.6801 7.3688 14.467 7.72014 14.556L9.97599 15.1272C10.1378 15.1682 10.3102 15.1429 10.4555 15.055C10.601 14.9668 10.7073 14.823 10.7492 14.6542C10.791 14.4854 10.7645 14.3079 10.6773 14.1609C10.5902 14.0141 10.45 13.9096 10.2882 13.8687L8.7843 13.4878C8.28132 13.3604 7.85021 13.0367 7.58502 12.5895C7.31998 12.1426 7.24224 11.6091 7.36698 11.1062C7.49173 10.6033 7.80933 10.1699 8.25166 9.90209C8.64717 9.66264 9.11354 9.57323 9.56724 9.64783L9.71891 9.03642C9.83526 8.56738 10.3093 8.28332 10.7778 8.40195Z" fill="white"/>
<line id="Line 10" x1="16.1248" y1="14.3748" x2="20.3748" y2="14.3748" stroke="white" stroke-width="1.75" stroke-linecap="round"/>
<line id="Line 11" x1="18.375" y1="12.375" x2="18.375" y2="16.625" stroke="white" stroke-width="1.75" stroke-linecap="round"/>
</g>
</svg>
