<svg width="24" height="24" viewBox="0 0 24 24" fill="none" xmlns="http://www.w3.org/2000/svg">
<g id="Referral">
<path id="Union" d="M13.2334 14.1842C13.3332 13.7821 13.0885 13.3738 12.687 13.2721C12.2854 13.1704 11.8791 13.4139 11.7793 13.816L11.6518 14.3302C11.1359 14.2101 10.5947 14.2967 10.1421 14.5707C9.67858 14.8514 9.34589 15.3054 9.21523 15.8322C9.08456 16.359 9.16596 16.9179 9.4437 17.3862C9.72161 17.8548 10.1735 18.1943 10.7008 18.3278L12.2047 18.7087C12.3422 18.7435 12.4616 18.8323 12.536 18.9576C12.6105 19.0833 12.6333 19.2353 12.5974 19.3802C12.5615 19.5251 12.4703 19.6483 12.3459 19.7236C12.2219 19.7987 12.0751 19.8201 11.9377 19.7853L9.68184 19.214C9.2803 19.1124 8.87394 19.3558 8.77422 19.7579C8.67449 20.1599 8.91916 20.5682 9.3207 20.6699L10.1984 20.8922L10.0828 21.3581C9.98311 21.7601 10.2278 22.1684 10.6293 22.2701C11.0309 22.3718 11.4372 22.1283 11.5369 21.7263L11.6529 21.2589C12.1573 21.3662 12.6831 21.2772 13.1246 21.0099C13.5881 20.7293 13.9208 20.2752 14.0515 19.7485C14.1822 19.2217 14.1008 18.6627 13.823 18.1944C13.5451 17.7258 13.0932 17.3863 12.5659 17.2528L11.062 16.872C10.9246 16.8372 10.8051 16.7484 10.7308 16.623C10.6563 16.4974 10.6334 16.3453 10.6693 16.2004C10.7053 16.0555 10.7964 15.9323 10.9208 15.857C11.0448 15.7819 11.1916 15.7606 11.3291 15.7954L13.5849 16.3666C13.9864 16.4683 14.3928 16.2248 14.4925 15.8228C14.5922 15.4208 14.3476 15.0124 13.946 14.9107L13.106 14.698L13.2334 14.1842ZM18.75 21V19.25H17C16.5858 19.25 16.25 18.9142 16.25 18.5C16.25 18.0858 16.5858 17.75 17 17.75H18.75V16C18.75 15.5858 19.0858 15.25 19.5 15.25C19.9142 15.25 20.25 15.5858 20.25 16V17.75H22C22.4142 17.75 22.75 18.0858 22.75 18.5C22.75 18.9142 22.4142 19.25 22 19.25H20.25V21C20.25 21.4142 19.9142 21.75 19.5 21.75C19.0858 21.75 18.75 21.4142 18.75 21Z" fill="#F7A600"/>
<path id="Union_2" d="M8.75 7C8.75 5.20507 10.2051 3.75 12 3.75C13.7949 3.75 15.25 5.20507 15.25 7C15.25 8.79493 13.7949 10.25 12 10.25C10.2051 10.25 8.75 8.79493 8.75 7ZM14.918 10.7483C16.0329 9.87912 16.75 8.5233 16.75 7C16.75 4.37665 14.6234 2.25 12 2.25C9.37665 2.25 7.25 4.37665 7.25 7C7.25 8.5233 7.96706 9.87913 9.08205 10.7483C5.68424 11.9499 3.25 15.1907 3.25 19V21.5C3.25 21.9142 3.58579 22.25 4 22.25C4.41421 22.25 4.75 21.9142 4.75 21.5V19C4.75 14.9959 7.99594 11.75 12 11.75C14.0097 11.75 15.8284 12.5677 17.1415 13.8885C17.2777 14.0772 17.4995 14.2 17.75 14.2C18.1642 14.2 18.5 13.8642 18.5 13.45C18.5 13.2467 18.4191 13.0623 18.2878 12.9272L18.2939 12.9214C17.3616 11.9563 16.2094 11.205 14.918 10.7483Z" fill="white"/>
</g>
</svg>
