<svg width="21" height="18" viewBox="0 0 21 18" fill="none" xmlns="http://www.w3.org/2000/svg">
<path fill-rule="evenodd" clip-rule="evenodd" d="M19.1599 4.5134C19.1599 3.9808 18.7311 3.54985 18.2017 3.54985H16.3931V0.674007L16.3879 0.582945C16.363 0.396068 16.2608 0.228237 16.1061 0.120481C15.9514 0.0127245 15.7586 -0.0250253 15.5747 0.0164597L0.0720019 3.54879L0 3.54985V18H18.2017C18.7311 18 19.1599 17.569 19.1599 17.0364V13.214C19.6894 13.214 20.1182 12.782 20.1182 12.2504V9.35977C20.1182 8.82717 19.6894 8.39621 19.1599 8.39621V4.5134ZM1.3418 4.89893H17.8186V8.39631H13.4127C12.8833 8.39631 12.4544 8.82727 12.4544 9.35881V12.2495C12.4536 12.5044 12.5541 12.7491 12.7339 12.9299C12.9136 13.1106 13.1578 13.2125 13.4127 13.213H17.8186L17.8197 16.6522H1.3418V4.89893ZM18.7767 9.74414H13.7969V11.864H18.7777V9.74414H18.7767ZM6.14136 3.54894L15.0516 1.51807L15.0527 3.54894H6.14136Z" fill="#121214"/>
</svg>
