<svg width="24" height="24" viewBox="0 0 24 24" fill="none" xmlns="http://www.w3.org/2000/svg">
<path d="M7.63401 5.58289C6.29295 7.07467 5.69982 9.17331 5.6158 10.589C5.60106 10.8372 5.46419 11.0621 5.25041 11.1892C4.97056 11.3556 4.55893 11.7006 4.22851 12.1143C3.87899 12.5518 3.74002 12.9153 3.75057 13.1305L3.75057 13.1307C3.7507 13.1367 3.75371 13.2823 4.22601 13.4469C4.65359 13.596 5.21017 13.6576 5.65187 13.6723C6.05615 13.6858 6.37692 14.0174 6.37692 14.4219V17.7613H10.2778C10.5078 17.7613 10.7252 17.8669 10.8674 18.0478C11.0096 18.2287 11.0609 18.4648 11.0066 18.6883L10.4022 21.177C10.3044 21.5795 9.89884 21.8266 9.49633 21.7288C9.09382 21.6311 8.84677 21.2255 8.94452 20.823L9.32381 19.2613H5.62692C5.2127 19.2613 4.87692 18.9255 4.87692 18.5113V15.1157C4.5062 15.0702 4.10323 14.9927 3.73223 14.8633C3.14533 14.6587 2.30087 14.1942 2.25236 13.2039C2.21427 12.4263 2.64342 11.6952 3.05653 11.1781C3.38592 10.7657 3.78113 10.3947 4.14953 10.1232C4.32098 8.48685 5.01163 6.25629 6.5185 4.58008C7.34149 3.6646 8.41342 2.90981 9.77247 2.52486C11.1309 2.14009 12.7281 2.13838 14.5816 2.65314C17.4517 3.45026 19.0144 5.14527 19.6595 7.15252C19.7863 7.54687 19.5693 7.9693 19.175 8.09603C18.7806 8.22277 18.3582 8.00582 18.2315 7.61147C17.7508 6.11591 16.5963 4.76945 14.1802 4.09844C12.5455 3.64444 11.2322 3.67041 10.1813 3.96809C9.13094 4.26559 8.29464 4.84803 7.63401 5.58289Z" fill="white"/>
<path d="M10.2499 8C10.2499 7.58579 10.5857 7.25 10.9999 7.25H15.9999C16.2507 7.25 16.4848 7.37533 16.6239 7.58397L18.4013 10.25H20.9999C21.4141 10.25 21.7499 10.5858 21.7499 11C21.7499 11.4142 21.4141 11.75 20.9999 11.75H17.9999C17.7491 11.75 17.515 11.6247 17.3759 11.416L15.5985 8.75H10.9999C10.5857 8.75 10.2499 8.41421 10.2499 8ZM11.2499 16C11.2499 16.4142 11.5857 16.75 11.9999 16.75H15.9999C16.1988 16.75 16.3896 16.671 16.5302 16.5303L18.3105 14.75H20.9999C21.4141 14.75 21.7499 14.4142 21.7499 14C21.7499 13.5858 21.4141 13.25 20.9999 13.25H17.9999C17.801 13.25 17.6102 13.329 17.4696 13.4697L15.6892 15.25H11.9999C11.5857 15.25 11.2499 15.5858 11.2499 16ZM14.9999 12.7499C15.4141 12.7499 15.7499 12.4141 15.7498 11.9999C15.7498 11.5856 15.414 11.2499 14.9998 11.2499L10.9997 11.25C10.5855 11.25 10.2497 11.5858 10.2498 12.0001C10.2498 12.4143 10.5856 12.75 10.9998 12.75L14.9999 12.7499Z" fill="white"/>
</svg>
